custom-analysis
version=1
nRows=5
nColumns=42
inDegrees=no

This file contains tibia displacement and acting force.

Units are S.I. units (seconds, meters, Newtons, ...)
Angles are in degrees.

endheader
time	APT	SIT	knee_angle	aACL_R_force	pACL_R_force	aPCL_R_force	pPCL_R_force	aMCL_R_force	mMCL_R_force	pMCL_R_force	aLCL_R_force	mLCL_R_force	pLCL_R_force	aACL_R_length	pACL_R_length	aPCL_R_length	pPCL_R_length	aMCL_R_length	mMCL_R_length	pMCL_R_length	aLCL_R_length	mLCL_R_length	pLCL_R_length	aACL_R_strain	pACL_R_strain	aPCL_R_strain	pPCL_R_strain	aMCL_R_strain	mMCL_R_strain	pMCL_R_strain	aLCL_R_strain	mLCL_R_strain	pLCL_R_strain	femur_lat_meniscii_force_r	femur_lat_meniscii_torque_r	femur_med_meniscii_force_r	femur_med_meniscii_torque_r	femur_lat_tibia_force_r	femur_lat_tibia_torque_r	femur_med_tibia_force_r	femur_med_tibia_torque_r
      0.54264888	      0.00293265	      0.00001642	     30.00011112	     53.50115867	     22.91882572	     23.22595730	      5.44457798	      0.00000000	      0.00000000	      0.00000000	      0.54458421	      0.00000000	      0.00000000	      0.03362493	      0.02660453	      0.03166936	      0.03030913	      0.05724820	      0.05912912	      0.05824285	      0.05607886	      0.05284326	      0.04913619	      0.08448281	      0.04912836	      0.01846123	      0.00735619	     -0.01342129	     -0.01111121	     -0.04092257	      0.00181611	     -0.06170861	     -0.06125989	     83.35036163	     24.17234784	     73.62050362	     24.40793134	      0.00000000	      0.00000000	      3.72079213	      0.09296993
      0.54574933	      0.00293340	      0.00001726	     30.00011112	     53.78490965	     23.23252056	     23.56424504	      6.39603029	      0.00000000	      0.00000000	      0.00000000	      1.57829899	      0.00000000	      0.00000000	      0.03362546	      0.02660525	      0.03166875	      0.03030816	      0.05724504	      0.05912589	      0.05823969	      0.05608187	      0.05284635	      0.04913926	      0.08449978	      0.04915686	      0.01844160	      0.00732384	     -0.01347579	     -0.01116529	     -0.04097471	      0.00186995	     -0.06165375	     -0.06120118	     81.36097713	     23.53537052	     72.51495890	     24.03258908	      0.00000000	      0.00000000	      4.46367640	      0.11031774
      0.54884979	      0.00293363	      0.00001634	     30.00011112	     53.74946608	     23.19012634	     23.41283870	      5.80366299	      0.00000000	      0.00000000	      0.00000000	      1.01826610	      0.00000000	      0.00000000	      0.03362717	      0.02660723	      0.03166986	      0.03030889	      0.05724346	      0.05912425	      0.05823809	      0.05608678	      0.05285131	      0.04914421	      0.08455487	      0.04923478	      0.01847747	      0.00734825	     -0.01350297	     -0.01119263	     -0.04100100	      0.00195755	     -0.06156556	     -0.06110664	     82.10272252	     23.78650498	     73.57101671	     24.38089630	      0.00000000	      0.00000000	      4.74859619	      0.11682194
      0.55195025	      0.00293432	      0.00001622	     30.00011112	     53.91167312	     23.36573412	     23.58020036	      6.19202892	      0.00000000	      0.00000000	      0.00000000	      1.42889030	      0.00000000	      0.00000000	      0.03362860	      0.02660891	      0.03167002	      0.03030866	      0.05724106	      0.05912178	      0.05823567	      0.05609085	      0.05285546	      0.04914833	      0.08460108	      0.04930114	      0.01848242	      0.00734065	     -0.01354435	     -0.01123395	     -0.04104083	      0.00203027	     -0.06149197	     -0.06102793	     81.13336525	     23.47841506	     73.23230461	     24.26691917	      0.00000000	      0.00000000	      5.38317785	      0.13148622
      0.55687438	      0.00293507	      0.00001476	     30.00011112	     53.99725546	     23.44999262	     23.58022958	      5.93110196	      0.00000000	      0.00000000	      0.00000000	      1.14654244	      0.00000000	      0.00000000	      0.03363174	      0.02661250	      0.03167146	      0.03030950	      0.05723841	      0.05911904	      0.05823299	      0.05609859	      0.05286331	      0.04915615	      0.08470234	      0.04944253	      0.01852900	      0.00736835	     -0.01358998	     -0.01127990	     -0.04108507	      0.00216864	     -0.06135254	     -0.06087867	     81.23643234	     23.52845683	     73.90223463	     24.48519836	      0.00000000	      0.00000000	      5.97033741	      0.14486496
